<svg width="28" height="28" viewBox="0 0 28 28" fill="none" xmlns="http://www.w3.org/2000/svg">
<g clip-path="url(#clip0_138:260)">
<path d="M1.44725 28C1.07842 28 0.709593 27.8598 0.429367 27.5774C-0.133194 27.0149 -0.133194 26.1028 0.429367 25.5402L25.5477 0.42192C26.1103 -0.14064 27.0223 -0.14064 27.5849 0.42192C28.1475 0.984481 28.1475 1.89653 27.5849 2.45944L2.46689 27.5774C2.18456 27.858 1.81573 28 1.44725 28Z" fill="white"/>
<path d="M26.5674 28C26.1985 28 25.8301 27.8598 25.5495 27.5774L0.429367 2.45944C-0.133194 1.89653 -0.133194 0.984481 0.429367 0.42192C0.991928 -0.14064 1.90398 -0.14064 2.46689 0.42192L27.5849 25.5402C28.1475 26.1028 28.1475 27.0149 27.5849 27.5774C27.3026 27.858 26.9341 28 26.5674 28Z" fill="white"/>
</g>
<defs>
<clipPath id="clip0_138:260">
<rect width="28" height="28" fill="white"/>
</clipPath>
</defs>
</svg>
